<mxfile host="app.diagrams.net" modified="2023-04-25T19:20:52.237Z" agent="Mozilla/5.0 (Windows NT 10.0; Win64; x64) AppleWebKit/537.36 (KHTML, like Gecko) Chrome/112.0.0.0 Safari/537.36" etag="5uWbh_NAbSvZM9gr20ON" version="21.2.1" type="device">
  <diagram id="prtHgNgQTEPvFCAcTncT" name="Page-1">
    <mxGraphModel dx="2607" dy="1635" grid="0" gridSize="10" guides="1" tooltips="1" connect="1" arrows="1" fold="1" page="1" pageScale="1" pageWidth="1920" pageHeight="1200" math="0" shadow="0">
      <root>
        <mxCell id="0" />
        <mxCell id="1" parent="0" />
        <mxCell id="nR_s4A1I1_9NM_nJVrTo-2" value="&lt;font style=&quot;font-size: 38px;&quot;&gt;Home Page&lt;/font&gt;" style="rounded=1;whiteSpace=wrap;html=1;fillColor=#ffcd28;gradientColor=#ffa500;strokeColor=#d79b00;glass=0;shadow=0;fontStyle=1;strokeWidth=2;fontSize=38;" vertex="1" parent="1">
          <mxGeometry x="786" y="291" width="348" height="143" as="geometry" />
        </mxCell>
        <mxCell id="nR_s4A1I1_9NM_nJVrTo-48" value="&lt;font style=&quot;font-size: 38px;&quot;&gt;Web Dev&lt;/font&gt;" style="rounded=1;whiteSpace=wrap;html=1;fillColor=#ffcd28;gradientColor=#ffa500;strokeColor=#d79b00;glass=0;shadow=0;fontStyle=1;strokeWidth=2;fontSize=38;" vertex="1" parent="1">
          <mxGeometry x="676" y="634" width="275" height="143" as="geometry" />
        </mxCell>
        <mxCell id="nR_s4A1I1_9NM_nJVrTo-50" value="&lt;font style=&quot;font-size: 38px;&quot;&gt;Blog&lt;/font&gt;" style="rounded=1;whiteSpace=wrap;html=1;fillColor=#ffcd28;gradientColor=#ffa500;strokeColor=#d79b00;glass=0;shadow=0;fontStyle=1;strokeWidth=2;fontSize=38;" vertex="1" parent="1">
          <mxGeometry x="969" y="634" width="275" height="143" as="geometry" />
        </mxCell>
        <mxCell id="nR_s4A1I1_9NM_nJVrTo-51" value="&lt;font style=&quot;font-size: 38px;&quot;&gt;About this page&lt;/font&gt;" style="rounded=1;whiteSpace=wrap;html=1;fillColor=#ffcd28;gradientColor=#ffa500;strokeColor=#d79b00;glass=0;shadow=0;fontStyle=1;strokeWidth=2;fontSize=38;" vertex="1" parent="1">
          <mxGeometry x="1262" y="634" width="275" height="143" as="geometry" />
        </mxCell>
        <mxCell id="nR_s4A1I1_9NM_nJVrTo-52" value="&lt;font style=&quot;font-size: 38px;&quot;&gt;Sitemap&lt;/font&gt;" style="rounded=1;whiteSpace=wrap;html=1;fillColor=#ffcd28;gradientColor=#ffa500;strokeColor=#d79b00;glass=0;shadow=0;fontStyle=1;strokeWidth=2;fontSize=38;" vertex="1" parent="1">
          <mxGeometry x="1555" y="634" width="275" height="143" as="geometry" />
        </mxCell>
        <mxCell id="nR_s4A1I1_9NM_nJVrTo-53" value="&lt;font style=&quot;font-size: 38px;&quot;&gt;Projects&lt;/font&gt;" style="rounded=1;whiteSpace=wrap;html=1;fillColor=#ffcd28;gradientColor=#ffa500;strokeColor=#d79b00;glass=0;shadow=0;fontStyle=1;strokeWidth=2;fontSize=38;" vertex="1" parent="1">
          <mxGeometry x="383" y="634" width="275" height="143" as="geometry" />
        </mxCell>
        <mxCell id="nR_s4A1I1_9NM_nJVrTo-54" value="&lt;font style=&quot;font-size: 38px;&quot;&gt;About Me&lt;/font&gt;" style="rounded=1;whiteSpace=wrap;html=1;fillColor=#ffcd28;gradientColor=#ffa500;strokeColor=#d79b00;glass=0;shadow=0;fontStyle=1;strokeWidth=2;fontSize=38;" vertex="1" parent="1">
          <mxGeometry x="90" y="634" width="275" height="143" as="geometry" />
        </mxCell>
        <mxCell id="nR_s4A1I1_9NM_nJVrTo-55" value="" style="endArrow=none;html=1;rounded=1;entryX=0.5;entryY=1;entryDx=0;entryDy=0;exitX=0.5;exitY=0;exitDx=0;exitDy=0;strokeWidth=3;edgeStyle=orthogonalEdgeStyle;" edge="1" parent="1" source="nR_s4A1I1_9NM_nJVrTo-52" target="nR_s4A1I1_9NM_nJVrTo-2">
          <mxGeometry width="50" height="50" relative="1" as="geometry">
            <mxPoint x="1057" y="511" as="sourcePoint" />
            <mxPoint x="1107" y="461" as="targetPoint" />
          </mxGeometry>
        </mxCell>
        <mxCell id="nR_s4A1I1_9NM_nJVrTo-56" value="" style="endArrow=none;html=1;rounded=1;entryX=0.5;entryY=0;entryDx=0;entryDy=0;exitX=0.5;exitY=1;exitDx=0;exitDy=0;edgeStyle=orthogonalEdgeStyle;strokeWidth=3;" edge="1" parent="1" source="nR_s4A1I1_9NM_nJVrTo-2" target="nR_s4A1I1_9NM_nJVrTo-51">
          <mxGeometry width="50" height="50" relative="1" as="geometry">
            <mxPoint x="1057" y="511" as="sourcePoint" />
            <mxPoint x="1107" y="461" as="targetPoint" />
          </mxGeometry>
        </mxCell>
        <mxCell id="nR_s4A1I1_9NM_nJVrTo-57" value="" style="endArrow=none;html=1;rounded=1;entryX=0.5;entryY=0;entryDx=0;entryDy=0;exitX=0.5;exitY=1;exitDx=0;exitDy=0;edgeStyle=orthogonalEdgeStyle;strokeWidth=3;" edge="1" parent="1" source="nR_s4A1I1_9NM_nJVrTo-2" target="nR_s4A1I1_9NM_nJVrTo-50">
          <mxGeometry width="50" height="50" relative="1" as="geometry">
            <mxPoint x="1057" y="511" as="sourcePoint" />
            <mxPoint x="1107" y="461" as="targetPoint" />
          </mxGeometry>
        </mxCell>
        <mxCell id="nR_s4A1I1_9NM_nJVrTo-58" value="" style="endArrow=none;html=1;rounded=1;exitX=0.5;exitY=0;exitDx=0;exitDy=0;entryX=0.5;entryY=1;entryDx=0;entryDy=0;edgeStyle=orthogonalEdgeStyle;strokeWidth=3;" edge="1" parent="1" source="nR_s4A1I1_9NM_nJVrTo-48" target="nR_s4A1I1_9NM_nJVrTo-2">
          <mxGeometry width="50" height="50" relative="1" as="geometry">
            <mxPoint x="1057" y="511" as="sourcePoint" />
            <mxPoint x="878" y="520" as="targetPoint" />
          </mxGeometry>
        </mxCell>
        <mxCell id="nR_s4A1I1_9NM_nJVrTo-59" value="" style="endArrow=none;html=1;rounded=1;entryX=0.5;entryY=0;entryDx=0;entryDy=0;exitX=0.5;exitY=1;exitDx=0;exitDy=0;edgeStyle=orthogonalEdgeStyle;strokeWidth=3;" edge="1" parent="1" source="nR_s4A1I1_9NM_nJVrTo-2" target="nR_s4A1I1_9NM_nJVrTo-53">
          <mxGeometry width="50" height="50" relative="1" as="geometry">
            <mxPoint x="1057" y="511" as="sourcePoint" />
            <mxPoint x="1107" y="461" as="targetPoint" />
          </mxGeometry>
        </mxCell>
        <mxCell id="nR_s4A1I1_9NM_nJVrTo-63" value="" style="endArrow=none;html=1;rounded=1;entryX=0.5;entryY=1;entryDx=0;entryDy=0;exitX=0.5;exitY=0;exitDx=0;exitDy=0;edgeStyle=orthogonalEdgeStyle;strokeWidth=3;" edge="1" parent="1" source="nR_s4A1I1_9NM_nJVrTo-54" target="nR_s4A1I1_9NM_nJVrTo-2">
          <mxGeometry width="50" height="50" relative="1" as="geometry">
            <mxPoint x="1057" y="511" as="sourcePoint" />
            <mxPoint x="1107" y="461" as="targetPoint" />
          </mxGeometry>
        </mxCell>
      </root>
    </mxGraphModel>
  </diagram>
</mxfile>
